<svg t="1699778906455" class="icon" viewBox="0 0 1024 1024" version="1.1" xmlns="http://www.w3.org/2000/svg" p-id="9431" width="200" height="200"><path d="M469.312 640H512v42.688h-42.688z" fill="#FFFFFF" p-id="9432"></path><path d="M512 640h42.688v42.688H512z" fill="#EFEFEF" p-id="9433"></path><path d="M469.312 682.688H512v42.688h-42.688z" fill="#FFFFFF" p-id="9434"></path><path d="M512 682.688h42.688v42.688H512z" fill="#EFEFEF" p-id="9435"></path><path d="M469.312 725.312H512V768h-42.688zM469.312 768H512v42.688h-42.688z" fill="#FFFFFF" p-id="9436"></path><path d="M512 725.312h42.688V768H512zM512 768h42.688v42.688H512z" fill="#EFEFEF" p-id="9437"></path><path d="M469.312 810.688H512v42.688h-42.688z" fill="#FFFFFF" p-id="9438"></path><path d="M512 853.312h42.688V896H512z" fill="#EFEFEF" p-id="9439"></path><path d="M426.688 896h42.688v42.688h-42.688z" fill="#FFFFFF" p-id="9440"></path><path d="M469.312 896H512v42.688h-42.688zM384 938.688h42.688v42.688H384zM426.688 938.688h42.688v42.688h-42.688z" fill="#FFFFFF" p-id="9441"></path><path d="M469.312 938.688H512v42.688h-42.688zM512 896h42.688v42.688H512zM512 938.688h42.688v42.688H512z" fill="#FFFFFF" p-id="9442"></path><path d="M554.688 896h42.688v42.688h-42.688z" fill="#EFEFEF" p-id="9443"></path><path d="M554.688 938.688h42.688v42.688h-42.688z" fill="#FFFFFF" p-id="9444"></path><path d="M597.312 938.688H640v42.688h-42.688zM512 810.688h42.688v42.688H512z" fill="#EFEFEF" p-id="9445"></path><path d="M469.312 853.312H512V896h-42.688zM256 170.688h42.688v42.688H256z" fill="#FFFFFF" p-id="9446"></path><path d="M298.688 170.688h42.688v42.688h-42.688z" fill="#EFEFEF" p-id="9447"></path><path d="M341.312 170.688H384v42.688h-42.688z" fill="#FFFFFF" p-id="9448"></path><path d="M384 171.456h42.688v42.688H384zM426.688 171.456h42.688v42.688h-42.688z" p-id="9449"></path><path d="M469.312 171.456H512v42.688h-42.688z" p-id="9450"></path><path d="M256 213.312h42.688V256H256z" fill="#FFFFFF" p-id="9451"></path><path d="M298.688 213.312h42.688V256h-42.688z" fill="#EFEFEF" p-id="9452"></path><path d="M341.312 214.144H384v42.688h-42.688z" p-id="9453"></path><path d="M384 213.312h42.688V256H384z" fill="#E60024" p-id="9454"></path><path d="M256 256.832h42.688v42.688H256zM298.688 256.832h42.688v42.688h-42.688z" p-id="9455"></path><path d="M512 170.688h42.688v42.688H512z" fill="#FFFFFF" p-id="9456"></path><path d="M512 214.144h42.688v42.688H512z" p-id="9457"></path><path d="M554.688 170.688h42.688v42.688h-42.688z" fill="#FFFFFF" p-id="9458"></path><path d="M554.688 214.144h42.688v42.688h-42.688z" p-id="9459"></path><path d="M554.688 256h42.688v42.688h-42.688z" fill="#E60024" p-id="9460"></path><path d="M597.312 170.688H640v42.624h-42.688zM597.312 213.312H640V256h-42.688z" fill="#FFFFFF" p-id="9461"></path><path d="M597.312 256.832H640v42.688h-42.688z" p-id="9462"></path><path d="M640 213.312h42.688V256H640zM640 256.832h42.688v42.688H640zM682.688 213.312h42.624V256h-42.624zM640 170.688h42.688v42.624H640zM682.688 170.688h42.688v42.624h-42.688z" fill="#FFFFFF" p-id="9463"></path><path d="M725.312 170.688H768v42.624h-42.688z" fill="#FFFFFF" p-id="9464"></path><path d="M298.688 42.688h42.688v42.688h-42.688z" fill="#EFEFEF" p-id="9465"></path><path d="M341.312 42.688H384v42.688h-42.688z" fill="#EFEFEF" p-id="9466"></path><path d="M384 42.688h42.688v42.688H384zM426.688 42.688h42.688v42.688h-42.688z" fill="#FFFFFF" p-id="9467"></path><path d="M469.312 42.688H512v42.688h-42.688z" fill="#FFFFFF" p-id="9468"></path><path d="M298.688 85.312h42.688V128h-42.688z" fill="#EFEFEF" p-id="9469"></path><path d="M341.312 85.312H384V128h-42.688zM384 85.312h42.688V128H384zM426.688 85.312h42.688V128h-42.688z" fill="#FFFFFF" p-id="9470"></path><path d="M469.312 85.312H512V128h-42.688zM512 42.688h42.688v42.688H512z" fill="#FFFFFF" p-id="9471"></path><path d="M512 85.312h42.688V128H512zM554.688 42.688h42.688v42.688h-42.688z" fill="#FFFFFF" p-id="9472"></path><path d="M554.688 85.312h42.688V128h-42.688z" fill="#FFFFFF" p-id="9473"></path><path d="M597.312 42.688H640v42.688h-42.688z" fill="#FFFFFF" p-id="9474"></path><path d="M597.312 85.312H640V128h-42.688zM640 42.688h42.688v42.688H640z" fill="#FFFFFF" p-id="9475"></path><path d="M640 85.312h42.688V128H640zM682.688 42.688h42.688v42.688h-42.688z" fill="#FFFFFF" p-id="9476"></path><path d="M682.688 85.312h42.688V128h-42.688z" fill="#FFFFFF" p-id="9477"></path><path d="M682.688 298.688h42.688v42.688h-42.688zM725.312 256H768v42.688h-42.688z" p-id="9478"></path><path d="M298.688 128h42.688v42.688h-42.688z" fill="#EFEFEF" p-id="9479"></path><path d="M341.312 128H384v42.688h-42.688zM384 128h42.688v42.688H384zM426.688 128h42.688v42.688h-42.688z" fill="#FFFFFF" p-id="9480"></path><path d="M469.312 128H512v42.688h-42.688zM512 128h42.688v42.688H512zM554.688 128h42.688v42.688h-42.688z" fill="#FFFFFF" p-id="9481"></path><path d="M597.312 128H640v42.688h-42.688zM640 128h42.688v42.688H640z" fill="#FFFFFF" p-id="9482"></path><path d="M640 298.688h42.688v42.688H640z" p-id="9483"></path><path d="M682.688 128h42.688v42.688h-42.688zM682.688 256h42.688v42.688h-42.688zM725.312 213.312H768V256h-42.688z" fill="#FFFFFF" p-id="9484"></path><path d="M426.688 256h42.688v42.688h-42.688z" fill="#E60024" p-id="9485"></path><path d="M469.312 256H512v42.688h-42.688z" fill="#E60024" p-id="9486"></path><path d="M341.312 298.688H384v42.688h-42.688z" fill="#FFFFFF" p-id="9487"></path><path d="M384 298.688h42.688v42.688H384zM426.688 298.688h42.688v42.688h-42.688z" fill="#E60024" p-id="9488"></path><path d="M469.312 298.688H512v42.688h-42.688zM512 298.688h42.688v42.688H512zM682.688 384h42.688v42.688h-42.688z" fill="#E60024" p-id="9489"></path><path d="M682.688 426.688h42.688v42.688h-42.688zM725.312 384H768v42.688h-42.688zM256 384h42.688v42.688H256z" fill="#C0001B" p-id="9490"></path><path d="M298.688 384h42.688v42.688h-42.688z" fill="#FFFFFF" p-id="9491"></path><path d="M341.312 384H384v42.688h-42.688zM384 384h42.688v42.688H384zM426.688 384h42.688v42.688h-42.688z" fill="#E60024" p-id="9492"></path><path d="M469.312 384H512v42.688h-42.688z" fill="#E60024" p-id="9493"></path><path d="M298.688 426.688h42.688v42.688h-42.688z" fill="#C0001B" p-id="9494"></path><path d="M341.312 426.688H384v42.688h-42.688z" fill="#FFFFFF" p-id="9495"></path><path d="M384 426.688h42.688v42.688H384zM426.688 426.688h42.688v42.688h-42.688z" fill="#E60024" p-id="9496"></path><path d="M469.312 426.688H512v42.688h-42.688zM384 469.312h42.688V512H384z" fill="#E60024" p-id="9497"></path><path d="M426.688 469.312h42.688V512h-42.688zM512 384h42.688v42.688H512zM512 426.688h42.688v42.688H512z" fill="#E60024" p-id="9498"></path><path d="M512 469.312h42.688V512H512z" fill="#E60024" p-id="9499"></path><path d="M384 512h42.688v42.688H384z" fill="#C0001B" p-id="9500"></path><path d="M426.688 512h42.688v42.688h-42.688zM554.688 384h42.688v42.688h-42.688zM554.688 426.688h42.688v42.688h-42.688z" fill="#E60024" p-id="9501"></path><path d="M597.312 384H640v42.688h-42.688zM597.312 426.688H640v42.688h-42.688z" fill="#E60024" p-id="9502"></path><path d="M597.312 469.312H640V512h-42.688zM554.688 512h42.688v42.688h-42.688z" fill="#E60024" p-id="9503"></path><path d="M597.312 512H640v42.688h-42.688zM426.688 554.688h42.688v42.688h-42.688zM512 554.688h42.688v42.688H512zM256 341.312h42.688V384H256z" fill="#C0001B" p-id="9504"></path><path d="M298.688 341.312h42.688V384h-42.688z" fill="#FFFFFF" p-id="9505"></path><path d="M341.312 341.312H384V384h-42.688zM384 341.312h42.688V384H384zM426.688 341.312h42.688V384h-42.688z" fill="#E60024" p-id="9506"></path><path d="M469.312 341.312H512V384h-42.688zM512 341.312h42.688V384H512zM554.688 341.312h42.688V384h-42.688z" fill="#E60024" p-id="9507"></path><path d="M597.312 341.312H640V384h-42.688zM640 384h42.688v42.688H640zM640 426.688h42.688v42.688H640z" fill="#E60024" p-id="9508"></path><path d="M640 469.312h42.688V512H640zM725.312 341.312H768V384h-42.688z" fill="#C0001B" p-id="9509"></path><path d="M341.312 469.312H384V512h-42.688z" fill="#FFFFFF" p-id="9510"></path><path d="M469.312 469.312H512V512h-42.688zM469.312 512H512v42.688h-42.688zM512 512h42.688v42.688H512zM554.688 469.312h42.688V512h-42.688z" fill="#E60024" p-id="9511"></path><path d="M469.312 554.688H512v42.688h-42.688zM554.688 554.688h42.688v42.688h-42.688z" fill="#C0001B" p-id="9512"></path><path d="M213.312 170.688H256v42.688h-42.688z" p-id="9513"></path><path d="M213.312 213.312H256V256h-42.688z" p-id="9514"></path><path d="M426.688 213.312h42.688V256h-42.688z" fill="#E60024" p-id="9515"></path><path d="M469.312 213.312H512V256h-42.688z" fill="#E60024" p-id="9516"></path><path d="M213.312 256H256v42.688h-42.688z" p-id="9517"></path><path d="M341.312 256H384v42.688h-42.688z" fill="#FFFFFF" p-id="9518"></path><path d="M384 256h42.688v42.688H384z" fill="#E60024" p-id="9519"></path><path d="M213.312 298.688H256v42.688h-42.688z" p-id="9520"></path><path d="M256 298.688h42.688v42.688H256z" fill="#C0001B" p-id="9521"></path><path d="M298.688 298.688h42.688v42.688h-42.688zM512 256h42.688v42.688H512zM554.688 298.688h42.688v42.688h-42.688z" fill="#E60024" p-id="9522"></path><path d="M597.312 298.688H640v42.688h-42.688z" fill="#E60024" p-id="9523"></path><path d="M256 42.688h42.688v42.688H256z" p-id="9524"></path><path d="M256 85.312h42.688V128H256zM725.312 42.688H768v42.688h-42.688z" p-id="9525"></path><path d="M725.312 85.312H768V128h-42.688z" p-id="9526"></path><path d="M725.312 298.688H768v42.688h-42.688z" fill="#C0001B" p-id="9527"></path><path d="M768 213.312h42.688V256H768zM768 256h42.688v42.688H768zM768 298.688h42.688v42.688H768zM682.688 469.312h42.688V512h-42.688z" p-id="9528"></path><path d="M725.312 426.688H768v42.688h-42.688zM768 384h42.688v42.688H768zM213.312 384H256v42.688h-42.688zM256 426.688h42.688v42.688H256zM298.688 469.312h42.688V512h-42.688zM384 554.688h42.688v42.688H384zM426.688 597.312h42.688V640h-42.688zM512 597.312h42.688V640H512zM426.688 640h42.688v42.688h-42.688zM597.312 554.688H640v42.688h-42.688zM554.688 640h42.688v42.688h-42.688zM426.688 682.688h42.688v42.688h-42.688zM554.688 682.688h42.688v42.688h-42.688z" p-id="9529"></path><path d="M426.688 725.312h42.688V768h-42.688zM426.688 768h42.688v42.688h-42.688zM554.688 725.312h42.688V768h-42.688zM426.688 810.688h42.688v42.688h-42.688zM554.688 810.688h42.688v42.688h-42.688z" p-id="9530"></path><path d="M554.688 853.312h42.688V896h-42.688zM384 896h42.688v42.688H384zM341.312 938.688H384v42.688h-42.688zM597.312 896H640v42.688h-42.688zM554.688 768h42.688v42.688h-42.688zM426.688 853.312h42.688V896h-42.688zM298.688 0h42.688v42.688h-42.688z" p-id="9531"></path><path d="M341.312 0H384v42.688h-42.688zM384 0h42.688v42.688H384zM426.688 0h42.688v42.688h-42.688z" p-id="9532"></path><path d="M469.312 0H512v42.688h-42.688zM256 128h42.688v42.688H256zM213.312 341.312H256V384h-42.688zM512 0h42.688v42.688H512zM554.688 0h42.688v42.688h-42.688z" p-id="9533"></path><path d="M597.312 0H640v42.688h-42.688zM640 0h42.688v42.688H640z" p-id="9534"></path><path d="M640 341.312h42.688V384H640z" fill="#E60024" p-id="9535"></path><path d="M640 512h42.688v42.688H640zM682.688 0h42.688v42.688h-42.688z" p-id="9536"></path><path d="M682.688 341.312h42.688V384h-42.688z" fill="#E60024" p-id="9537"></path><path d="M725.312 128H768v42.688h-42.688zM768 170.688h42.688v42.688H768zM768 341.312h42.688V384H768zM298.688 981.312h42.688V1024h-42.688z" p-id="9538"></path><path d="M341.312 981.312H384V1024h-42.688zM384 981.312h42.688V1024H384zM426.688 981.312h42.688V1024h-42.688z" p-id="9539"></path><path d="M469.312 981.312H512V1024h-42.688zM512 981.312h42.688V1024H512zM554.688 981.312h42.688V1024h-42.688z" p-id="9540"></path><path d="M597.312 981.312H640V1024h-42.688zM640 938.688h42.688v42.688H640z" p-id="9541"></path><path d="M640 981.312h42.688V1024H640zM682.688 981.312h42.688V1024h-42.688zM341.312 512H384v42.688h-42.688zM469.312 597.312H512V640h-42.688zM554.688 597.312h42.688V640h-42.688z" p-id="9542"></path></svg>